<svg width="256" height="103" viewBox="0 0 256 103" fill="none" xmlns="http://www.w3.org/2000/svg" wsf-3x2="1" hsf-3x2="0.6035" wsf-4x2="0.975" hsf-4x2="0.78455">
  <path fill-rule="evenodd" clip-rule="evenodd" d="M169.411 0.8687C169.647 0.668804 169.762 0.571692 169.859 0.630721C169.859 0.630721 170.549 1.78227 168.854 3.13136C168.642 3.86854 167.627 5.27545 161.445 6.06081C161.445 6.06081 161.957 6.47518 163.918 6.21499C165.874 5.94518 167.395 5.52118 167.395 5.52118C167.395 5.52118 168.25 5.28027 168.521 5.53563C168.521 5.53563 168.641 6.14754 166.603 7.2509C166.329 7.89841 165.322 8.09427 164.711 8.21315C164.394 8.27473 164.184 8.31565 164.236 8.38799C164.236 8.38799 165.656 8.78308 165.661 9.17336C165.661 9.55881 163.7 10.9513 161.044 10.8934L159.426 10.7874C159.426 10.7874 162.575 11.5198 162.889 12.2329C162.889 12.2329 162.526 12.7533 161.092 12.8014C160.03 12.8428 159.048 12.6762 157.739 12.4541C156.608 12.2622 155.232 12.0287 153.349 11.8523C153.277 11.8279 153.776 12.0452 154.491 12.357C156.041 13.0326 158.609 14.1521 158.6 14.218C158.527 14.7384 156.276 14.6227 156.276 14.6227L155.813 14.6661C155.813 14.6661 156.865 15.2924 156.711 15.5671C156.556 15.8369 154.001 16.3814 153.011 16.3476C153.011 16.3476 154.363 18.087 153.629 17.7449C153.074 17.4895 149.722 16.3043 150.379 16.6753C151.443 17.268 151.743 17.5934 152.214 18.1052C152.294 18.1925 152.38 18.2853 152.475 18.3857C152.779 18.6989 153.325 20.0624 152.9 20.0384C151.857 19.9757 150.784 19.253 150.784 19.253C150.784 19.253 151.697 20.9008 151.238 20.9297C150.874 20.96 149.935 20.0511 149.357 19.4915C149.199 19.3386 149.068 19.2118 148.983 19.1374C146.388 16.4839 147.526 18.3263 148.39 19.7246C148.67 20.1773 148.921 20.5835 149.007 20.7755C149.244 21.3039 149.313 21.6927 149.366 21.9948C149.392 22.1417 149.415 22.2681 149.451 22.38C149.451 22.38 149.509 22.6209 149.099 22.6209C148.688 22.6209 147.075 21.8693 147.075 21.8693C147.075 21.8693 147.901 22.9823 147.548 23.2039C147.195 23.4207 145.094 22.9967 144.829 22.7992C145.442 23.8062 145.437 24.6156 145.437 24.6156C145.437 24.6156 143.505 23.5942 143.785 23.97C144.085 24.3699 144.35 25.0782 143.969 25.3576C142.79 25.1923 141.497 24.0311 140.85 23.4493C140.516 23.1492 140.354 23.0034 140.467 23.228C141.038 24.3611 142.237 25.4874 142.906 26.1159C143.216 26.4068 143.412 26.591 143.38 26.62C142.819 27.1114 141.67 26.7067 141.061 26.4754C141.077 26.5196 141.099 26.576 141.123 26.6376C141.206 26.8447 141.311 27.111 141.259 27.1741C140.575 27.3467 140.105 27.1915 139.437 26.9704C139.303 26.9262 139.161 26.8794 139.008 26.832C139.127 27.0293 139.497 27.2759 139.864 27.5208C140.241 27.7723 140.615 28.022 140.713 28.2148C140.197 28.528 139.902 28.475 139.071 28.2967C139.071 28.2967 138.395 28.2389 137.917 28.0365C137.891 28.0262 137.934 28.0599 138.017 28.1257C138.282 28.3364 138.962 28.877 139.168 29.3615C138.665 29.5302 137.777 29.7711 136.588 29.1736C136.497 29.1303 136.091 29.3808 136.414 29.9204C136.804 30.5311 137.722 31.0766 138.294 31.4167C138.616 31.6079 138.829 31.7342 138.776 31.7706C138.491 31.9634 138.042 31.8622 138.042 31.8622C138.042 31.8622 139.588 33.3751 140.216 33.9388C140.197 33.9851 140.122 34.0083 140.041 34.0336C139.978 34.0531 139.912 34.0739 139.863 34.1074C139.972 34.227 140.161 34.5319 140.396 34.9103C140.907 35.7365 141.635 36.9128 142.225 37.273C142.172 37.273 142.127 37.2736 142.088 37.274C141.871 37.2768 141.836 37.2772 141.636 37.167C142.22 37.9235 142.863 39.5279 143.022 40.5494C143.674 42.0912 143.162 44.7653 142.679 46.336C142.418 47.1744 142.061 47.9983 141.583 48.7355C141.563 48.7644 141.539 48.7933 141.515 48.827C143.003 47.8104 146.466 44.9291 145.505 40.4289C145.418 40.0044 145.391 39.8573 145.36 39.7108C145.316 39.4983 145.264 39.2873 145.012 38.2318C144.235 34.4736 145.186 31.4671 146.572 30.6432C146.586 30.6348 146.594 30.6231 146.608 30.6045C146.656 30.537 146.769 30.3791 147.427 29.9638C147.466 29.9395 147.507 29.9138 147.549 29.8868C148.216 29.4654 149.346 28.7523 149.886 28.6436C150.465 28.528 151.509 28.6099 152.32 28.8123C152.451 28.8403 152.702 28.9383 152.949 29.0345C153.169 29.1202 153.386 29.2045 153.509 29.2363C153.876 29.323 154.011 29.4675 154.359 30.0216C154.383 30.0602 154.417 30.0987 154.441 30.1421C154.552 30.2095 154.658 30.2722 154.769 30.3252C154.888 30.3776 154.998 30.4396 155.108 30.5017C155.231 30.571 155.354 30.6403 155.489 30.6962C155.643 30.754 155.798 30.8022 155.953 30.8504C155.978 30.8593 156.009 30.8678 156.042 30.8768C156.115 30.897 156.199 30.9198 156.252 30.9564C156.147 31.0438 156.055 31.1372 155.966 31.227C155.859 31.3353 155.757 31.4385 155.643 31.5201C155.804 31.614 155.967 31.6793 156.13 31.7445C156.484 31.8867 156.837 32.0283 157.165 32.4645C156.817 32.715 156.537 32.7487 156.291 32.7246C156.276 32.8017 156.218 32.8644 156.102 32.8933C156.001 32.9222 155.605 32.8933 155.557 32.821C155.542 32.8451 155.537 32.8451 155.532 32.8692C155.477 32.911 155.468 32.9842 155.458 33.0577C155.45 33.1195 155.442 33.1817 155.407 33.2257C155.32 33.3462 155.165 33.3462 155.035 33.2884C154.948 33.246 154.847 33.1689 154.74 33.0875C154.544 32.9377 154.328 32.7731 154.146 32.7825C154.219 32.927 154.315 33.2691 154.306 33.4184C154.016 33.4715 153.629 33.2065 153.378 32.9607C153.341 33.0552 153.31 33.1196 153.278 33.1867C153.251 33.2429 153.223 33.3009 153.19 33.3799C152.967 33.4321 152.753 33.4139 152.545 33.3962C152.465 33.3894 152.385 33.3826 152.306 33.3799C151.586 33.3558 151.118 33.2546 150.446 32.7825C150.347 32.7095 150.247 32.6141 150.143 32.5142C149.957 32.3368 149.757 32.1452 149.519 32.0405C149.348 31.9651 149.199 31.9556 149.06 31.9467C148.851 31.9334 148.662 31.9214 148.451 31.6935C147.877 32.0101 147.563 32.4499 147.357 32.7387C147.315 32.7971 147.278 32.8494 147.244 32.8933C146.886 33.7461 146.572 34.8543 147.823 38.6365C148.417 40.4482 148.495 41.3685 148.485 42.1683C148.461 43.8209 148.07 45.3242 147.109 47.6225C146.654 49.0053 145.075 50.5808 143.795 51.3662C143.661 51.6092 143.121 51.9089 142.724 52.1298C142.578 52.211 142.451 52.2815 142.37 52.3346C141.567 52.8728 140.651 52.9998 139.532 53.1551C139.318 53.1847 139.097 53.2153 138.868 53.2501C136.468 53.6216 134.306 53.3354 133.468 53.2245C133.328 53.2059 133.225 53.1923 133.164 53.1875C133.164 53.1875 130.782 54.0836 129.884 53.8427C129.502 53.7415 127.624 53.7464 126.117 53.7801C125.369 53.7992 124.743 53.8738 124.149 53.9447C123.093 54.0707 122.137 54.1848 120.774 53.9535C120.755 53.9827 120.711 54.0181 120.664 54.0552C120.619 54.0916 120.571 54.1298 120.542 54.1655C120.393 54.0933 120.349 53.8524 120.33 53.7078C120.303 53.6808 120.278 53.6541 120.253 53.6278C120.118 53.485 119.995 53.3556 119.673 53.2742C119.659 53.2694 119.643 53.2645 119.627 53.2597C119.611 53.2549 119.596 53.2501 119.581 53.2453C119.562 53.2786 119.544 53.3142 119.526 53.3497C119.461 53.4784 119.396 53.606 119.301 53.6211C119.142 53.6115 119.05 53.0622 119.089 52.8309C119.019 52.7396 118.94 52.6957 118.859 52.651C118.765 52.599 118.669 52.5461 118.586 52.4165C118.499 52.5238 118.396 52.6078 118.296 52.6887C118.204 52.764 118.115 52.8365 118.045 52.9225C117.852 53.1585 117.939 52.1467 118.089 51.8865C118.132 51.4481 118.364 51.2216 118.562 51.1494C119.296 49.7135 119.76 49.4967 122.962 49.7473C123.648 49.5883 126.43 49.6364 127.522 49.8774C127.46 49.784 127.135 49.6502 126.677 49.4618C125.67 49.0473 124.022 48.3686 123.122 47.2755C119.804 43.1703 121.389 40.6302 121.642 40.2238C121.671 40.1775 121.683 40.1589 121.668 40.1687C121.452 40.32 121.217 40.2476 121.041 40.1934C121.004 40.182 120.97 40.1714 120.939 40.1639C120.861 40.1549 120.788 40.1695 120.716 40.1839C120.594 40.2081 120.474 40.2321 120.335 40.1446C120.093 40.1687 119.398 39.9856 119.002 39.8122C118.983 39.8151 118.963 39.8185 118.941 39.8222C118.675 39.8669 118.162 39.9533 117.76 39.7351C117.562 39.6243 117.214 39.3834 116.847 39.0895C116.5 40.5975 116.804 40.3229 116.804 40.3229C116.929 40.5527 116.9 40.7759 116.873 40.9855C116.854 41.1318 116.836 41.2715 116.872 41.4022C117.485 43.6571 116.543 42.2984 116.543 42.2984C116.543 42.2984 117.128 43.5366 116.978 44.2545C116.654 44.1967 116.355 43.951 116.355 43.951C116.355 43.951 116.833 45.3194 116.867 46.5817C116.887 47.3541 116.832 47.2577 116.689 47.0113C116.6 46.8566 116.476 46.6428 116.316 46.548C116.21 46.4805 116.089 46.4516 116.036 46.5914L116.012 46.7022C115.988 46.919 116.05 47.343 116.287 48.1139C116.416 48.5481 116.198 48.3342 115.965 48.1051C115.831 47.9732 115.692 47.8363 115.611 47.8152C115.542 47.7962 115.473 48.0131 115.383 48.2956C115.29 48.5854 115.176 48.9444 115.017 49.1884C115.017 49.1884 115.35 49.3425 115.572 49.3136C115.794 49.2751 115.36 49.6557 115.36 49.6557C115.36 49.6557 116.171 50.2339 116.036 52.0745C116.195 52.2913 115.983 53.0333 115.804 53.3127C115.621 53.6018 114.819 54.3245 114.659 54.2089C114.607 54.1715 114.655 53.9847 114.713 53.7613C114.751 53.6104 114.794 53.4429 114.814 53.2934C114.824 53.2017 114.825 53.1183 114.826 53.0393C114.827 52.8654 114.828 52.7126 114.935 52.537C115.021 51.933 114.449 51.6535 113.798 51.3352C113.722 51.2981 113.645 51.2604 113.568 51.2216C113.009 50.9448 112.456 51.5162 112.019 51.9676C111.878 52.1133 111.749 52.2465 111.636 52.3346C111.108 52.7482 110.922 52.99 110.739 53.2256C110.578 53.4346 110.42 53.6387 110.032 53.9535C109.478 54.4036 108.878 54.4333 108.446 54.4547C108.23 54.4654 108.056 54.474 107.95 54.5317C107.765 54.631 107.636 54.9005 107.536 55.1084C107.466 55.2537 107.411 55.369 107.361 55.3749C107.235 55.3894 107.177 55.1244 107.192 54.8834C107.201 54.6474 107.409 53.6596 107.714 53.4187C108.131 52.3072 108.773 52.1934 109.196 52.1183C109.242 52.1101 109.286 52.1023 109.327 52.0937C109.327 52.0937 109.906 51.7035 110.022 51.477C109.689 51.4625 108.443 51.6023 108.042 51.7516C107.477 51.9444 106.772 51.6215 106.646 51.5155C106.613 51.4886 106.594 51.4624 106.578 51.4395C106.53 51.3724 106.503 51.3352 106.197 51.3999C105.726 51.4959 105.461 51.938 105.31 52.1888C105.249 52.2905 105.207 52.3608 105.178 52.3635C105.081 52.3684 105.052 52.2575 105.038 51.9347C105.028 51.6167 105.487 50.6772 105.844 50.4411C106.197 50.205 106.506 50.1424 106.506 50.1424C106.506 50.1424 106.888 49.9015 107.221 49.8195C107.554 49.7425 107.723 49.7184 108.583 49.8774C109.05 50.0365 109.402 49.7907 109.835 49.4886C110.123 49.2877 110.446 49.0619 110.863 48.9137C110.842 48.8306 110.853 48.7124 110.865 48.5969C110.874 48.4983 110.884 48.4018 110.872 48.3307C110.826 48.3499 110.775 48.3751 110.723 48.4012C110.511 48.5061 110.267 48.6267 110.162 48.4415C110.373 48.4415 110.407 48.2255 110.442 48.0034C110.457 47.9091 110.472 47.8137 110.501 47.7333C110.462 46.9961 110.534 46.4179 110.534 46.4179C110.534 46.4179 110.428 46.6492 110.085 46.6781C109.984 46.5287 110.003 45.8494 110.143 45.3001C110.211 45.0158 109.844 44.8183 109.621 44.9869C109.651 44.8842 109.68 44.7925 109.707 44.705C109.794 44.4233 109.868 44.1848 109.931 43.7583L109.931 43.7527C109.955 43.5354 109.963 43.4649 109.187 43.5318C109.463 43.0067 109.43 42.4508 109.399 41.9195C109.389 41.7537 109.38 41.5904 109.38 41.4311C109.256 41.5386 109.153 41.5546 109.063 41.5687C108.991 41.5799 108.928 41.5898 108.868 41.6431C108.651 41.831 108.786 41.0745 108.926 40.6939C108.969 40.5831 109.051 40.3518 109.018 40.1832C109.018 40.1832 108.593 39.2677 108.834 38.8052C108.899 38.6832 108.776 38.686 108.631 38.6892C108.496 38.6923 108.343 38.6958 108.308 38.598C108.26 38.5264 108.379 38.1677 108.468 37.8993C108.505 37.7883 108.536 37.6927 108.549 37.6392C108.73 36.856 108.717 36.2915 108.705 35.7594C108.698 35.4371 108.691 35.1267 108.728 34.7868C108.651 34.7698 108.526 34.8294 108.427 34.8765C108.358 34.9096 108.301 34.9365 108.283 34.9265C108.269 34.7634 108.398 34.244 108.513 33.7807C108.632 33.2999 108.737 32.8794 108.651 32.98C108.303 33.3799 107.897 33.3799 107.887 33.3799C107.774 33.171 107.834 32.7823 107.893 32.3978C107.978 31.8511 108.061 31.3129 107.641 31.3129C107.63 31.3129 107.652 31.2209 107.685 31.079C107.772 30.7043 107.941 29.9814 107.815 29.6844C107.772 29.6801 107.689 29.7575 107.6 29.8407C107.489 29.9449 107.367 30.0581 107.303 30.0313C107.216 29.7084 107.274 29.3567 107.371 28.8894C107.338 28.894 107.303 28.9032 107.267 28.9126C107.192 28.9325 107.111 28.9539 107.032 28.9375C106.955 28.7304 106.999 28.528 107.187 28.1281C106.892 28.2485 106.743 28.2582 106.617 28.2534C106.569 28.1184 106.54 28.0076 106.641 27.6222C106.849 26.7742 107.313 26.0948 107.313 26.0948C107.313 26.0948 106.091 26.5959 105.975 26.2972C106.561 25.9071 106.915 25.2437 107.34 24.446C107.377 24.3766 107.414 24.3063 107.453 24.235C107.452 24.2332 107.435 24.2217 107.407 24.2021C107.199 24.0603 106.369 23.4939 106.569 23.1172C106.62 23.0132 106.662 22.9151 106.705 22.8152C106.871 22.4292 107.048 22.0163 107.834 21.1321C107.825 21.1258 107.806 21.1079 107.78 21.0827C107.643 20.953 107.304 20.6299 106.989 20.6984C107.255 19.89 107.88 19.4868 108.485 19.0962C108.627 19.0049 108.767 18.9143 108.902 18.8194C109.307 18.5351 108.279 18.4965 107.525 18.6941C107.332 18.7423 107.627 18.0484 108.829 17.2679C109.679 16.7234 110.051 16.7668 110.051 16.7668C110.051 16.7668 109.969 16.3765 109.452 16.3476C108.699 16.3139 110.839 15.4707 110.839 15.4707C111.694 14.8829 113.263 12.9894 113.5 12.3582C113.621 12.0257 113.746 11.9294 113.872 11.9775C113.93 11.1584 113.626 10.8694 113.374 10.7634C112.838 10.5417 112.037 10.1996 110.423 8.46509C109.312 7.27018 108.226 7.59299 108.226 7.59299C107.863 7.64599 107.119 7.73754 106.25 7.57854C105.347 7.42436 104.941 7.79054 104.941 7.79054C104.68 8.02663 104.661 8.23863 104.748 8.51327C104.777 8.6289 104.695 8.69154 104.588 8.61927C104.487 8.54218 104.4 8.41208 104.337 8.26754C103.777 6.70163 104.584 5.5549 104.584 5.5549C105.941 3.74809 108.259 3.72399 108.259 3.72399C108.597 2.81336 109.897 2.35081 109.897 2.35081C112.355 1.38236 115.997 1.80636 118.127 2.34599C118.201 2.33782 118.242 2.33542 118.278 2.32201C118.371 2.28802 118.437 2.18326 118.953 1.73408C118.953 2.07136 119.118 2.03281 119.118 2.03281C119.118 2.03281 119.523 1.83527 119.683 1.48836C119.755 1.63456 119.775 1.68791 119.808 1.69857C119.838 1.70793 119.878 1.68434 119.973 1.66181L120.113 1.53654C120.214 1.41572 120.281 1.2949 120.34 1.18893C120.396 1.08783 120.445 1.00025 120.509 0.939085C120.538 0.941246 120.567 0.944559 120.594 0.9478C120.812 0.973457 120.992 0.994605 121.644 0.404267C121.667 0.404267 121.715 0.357961 121.779 0.296729C121.948 0.132757 122.229 -0.138254 122.45 0.0862666C123.214 0.842721 123.513 1.44018 123.624 2.3749C123.643 2.53266 123.76 2.85937 123.896 3.23611C124.149 3.94094 124.466 4.82087 124.315 5.09718C124.416 5.29954 124.914 6.30654 124.914 6.30654C124.914 6.30654 124.325 6.12345 124.344 6.15236C124.344 6.15236 124.392 6.43663 124.914 7.37136C124.547 7.27018 124.199 7.21236 124.199 7.21236C124.199 7.21236 125.073 8.39281 125.31 8.4699C125.406 8.7349 124.779 8.54218 124.411 8.37836C124.591 8.47237 124.683 8.61568 124.792 8.78256C124.905 8.95779 125.035 9.15902 125.3 9.35645C125.356 9.40094 125.232 9.48536 125.116 9.56363C125.082 9.58708 125.048 9.60998 125.02 9.63108C125.701 10.6092 126.353 11.7414 126.633 12.8014C127.541 11.7414 128.309 10.4743 128.952 8.88427C132.657 2.6452 135.636 2.94563 147.863 4.1789C149.489 4.34281 151.277 4.5232 153.253 4.7069C156.667 5.02972 159.971 4.36963 163.323 3.56499C167.37 2.59502 168.798 1.38672 169.411 0.8687ZM208.118 88.4199C208.118 95.3533 204.486 99.9257 199.062 99.9257C193.642 99.9257 190.039 95.3533 190.039 88.4199C190.039 81.4914 193.57 76.9189 199.062 76.9189C204.592 76.9189 208.118 81.4914 208.118 88.4199ZM209.538 88.4199C209.538 80.6916 205.578 75.6469 199.062 75.6469C192.589 75.6469 188.585 80.6916 188.585 88.4199C188.585 96.1531 192.551 101.198 199.062 101.198C205.611 101.198 209.538 96.1531 209.538 88.4199ZM13.8452 79.8397C13.623 78.5099 12.8744 77.4836 11.604 76.7898L10.2999 76.0526H21.9261L21.2837 76.5489C21.2837 76.5489 21.0712 76.7127 20.9794 76.7801C19.8685 77.5269 19.2792 78.6303 19.1681 80.1529C19.057 81.7621 18.9362 83.6316 18.9266 85.4769C18.9125 87.9199 18.9351 89.3276 18.9631 91.0712L18.9652 91.2058C18.9797 91.8225 18.9942 92.5115 19.0087 93.3547H18.999C18.9749 95.8746 18.0137 97.9464 16.2941 99.3389C14.7098 100.625 12.5266 101.305 9.9859 101.305C5.31994 101.305 1.87601 98.9149 1.62001 95.4891L1.61035 95.3976L6.18937 94.0051L6.1459 94.2027C6.04447 94.6122 5.99616 95.0362 5.99616 95.4939C5.99616 97.9223 7.63843 99.6183 9.9859 99.6183C12.8116 99.6183 14.2461 97.5609 14.2461 93.504V92.4055H14.2365C14.222 89.2689 14.2027 85.6793 14.1399 82.3018C14.1254 81.5453 13.9998 80.7696 13.8742 80.0228L13.8452 79.8397ZM52.8668 76.585L52.234 76.0935H61.5176L61.1699 76.5368C61.1646 76.5444 61.1589 76.5527 61.1528 76.5618L61.1525 76.5622C61.1198 76.6107 61.0747 76.6777 61.0056 76.7344C59.7208 77.8715 58.7548 79.3073 58.0447 81.143C56.8034 84.3374 55.5041 87.7824 54.0792 91.6659C53.2422 93.9428 51.6881 98.4254 51.1675 99.927L51.1664 99.9303L51.122 100.058L51.0245 100.339C51.0052 100.395 50.9943 100.426 50.9927 100.43L50.9395 100.58L50.7898 100.608C50.3261 100.7 49.7899 100.743 49.1813 100.743C48.5969 100.743 48.0849 100.7 47.6164 100.608L47.4666 100.58L47.4135 100.43C47.4135 100.43 43.9116 90.6396 42.1196 85.6335L42.0713 85.7684C40.3759 90.418 36.7195 100.43 36.7195 100.43L36.6663 100.58L36.5166 100.608C36.0577 100.695 35.5264 100.743 34.9275 100.743C34.3237 100.743 33.7924 100.695 33.3383 100.608L33.1838 100.575L33.1306 100.425C33.0968 100.31 29.4259 89.199 27.6194 83.9472C27.0591 82.309 26.3587 80.5841 25.4748 78.6665C25.2317 78.1387 24.8616 77.6578 24.4991 77.1869L24.4846 77.168C24.3155 76.9512 24.1513 76.7392 24.0016 76.5224L23.6973 76.0935H33.4349L32.266 77.062C31.3483 77.8281 31.0247 78.8206 31.329 79.9384C31.841 81.8272 32.4544 83.8797 33.2562 86.4044C33.9848 88.7003 34.7375 90.9913 35.4902 93.2823L35.4904 93.283L35.4906 93.2837L35.4908 93.2843L35.4911 93.285L35.4913 93.2856L35.4915 93.2863L35.4917 93.287L35.4919 93.2876L35.4921 93.2883L35.4924 93.289L35.4926 93.2896L36.3089 95.7854L36.333 95.7276C36.3992 95.5523 36.4653 95.38 36.5309 95.2091L36.5313 95.208C36.6332 94.9425 36.7337 94.6807 36.8306 94.4171L37.4087 92.8788L37.4112 92.872L37.4122 92.8695C38.6285 89.633 39.8439 86.3992 41.0521 83.1618C41.1053 83.0125 41.1101 82.9016 41.0956 82.8679C40.5353 81.3165 39.9557 79.712 38.9703 78.3388C38.6515 77.8955 38.2941 77.4764 37.9463 77.0716C37.7918 76.8885 37.642 76.7103 37.4971 76.5368L37.13 76.0935H47.1816L46.1625 76.956C45.0081 77.9341 44.6941 79.1145 45.1964 80.56C46.2881 83.6918 47.3845 86.8236 48.481 89.9506L49.1185 91.7815L49.1195 91.7841L49.1204 91.7867L49.1213 91.7893L49.1222 91.7919C49.575 93.0797 50.0278 94.3675 50.4807 95.6505L50.8912 94.4749L51.0082 94.1393L51.0084 94.1386C51.4419 92.8949 51.8702 91.6657 52.2823 90.4324L52.5383 89.6664C53.2145 87.662 53.9101 85.5854 54.5235 83.5232C54.9582 82.0633 55.0693 80.7142 54.8616 79.4084C54.6829 78.3003 54.1081 77.433 53.0986 76.7536C53.0262 76.7006 52.8668 76.585 52.8668 76.585ZM83.4955 100.761H82.2252L75.347 84.1042C74.3665 81.7433 73.5647 79.6041 73.2362 78.3706H73.2024C73.3087 79.4932 73.3473 82.5046 73.3473 84.6487V100.761H71.9272V76.082H73.6033L81.4958 95.2439C82.1866 96.9158 82.5875 97.9324 82.8773 98.872H82.9111C83.2057 97.8939 83.5342 96.9881 84.1911 95.2439L91.4992 76.082H93.3202V100.761H91.9001V85.0101C91.9001 82.8708 91.9387 79.0211 92.045 77.9707H92.0112C91.7552 78.9488 90.9534 81.2711 90.0453 83.6706L83.4955 100.761ZM110.306 77.1699C110.63 78.2974 111.359 80.3644 111.833 81.6364L115.62 91.6871H104.887L108.669 81.5978C108.851 81.0977 109.091 80.4575 109.34 79.7912L109.34 79.7899L109.34 79.7896L109.341 79.7868L109.343 79.7823L109.344 79.7793L109.346 79.7756C109.69 78.8547 110.052 77.8859 110.306 77.1699ZM100.12 100.76H101.574L104.414 92.9928H116.127L119.039 100.76H120.455L111.181 76.0858H109.432L100.12 100.76ZM135.55 88.1674C138.318 88.1674 140.134 87.8398 141.516 86.7894C142.684 85.9173 143.375 84.6502 143.375 82.7614C143.375 80.9113 142.462 79.4224 141.081 78.5503C139.661 77.6445 138.207 77.4277 135.55 77.4277H128.677V88.1674H135.55ZM145.703 100.762H143.844L135.845 89.4732H128.677V100.762H127.257V76.0834H135.589C138.246 76.0834 139.733 76.3388 140.897 76.811C143.264 77.8276 144.829 79.8946 144.829 82.7614C144.829 85.0838 143.916 86.7557 142.462 87.8398C141.153 88.8564 139.443 89.2563 137.478 89.3672L145.703 100.762ZM167.489 86.7894C166.108 87.8398 164.287 88.1674 161.524 88.1674H154.646V77.4277H161.524C164.181 77.4277 165.634 77.6445 167.054 78.5503C168.436 79.4224 169.344 80.9113 169.344 82.7614C169.344 84.6502 168.653 85.9173 167.489 86.7894ZM169.817 100.762H171.672L163.451 89.3672C165.417 89.2563 167.127 88.8564 168.436 87.8398C169.89 86.7557 170.798 85.0838 170.798 82.7614C170.798 79.8946 169.238 77.8276 166.871 76.811C165.707 76.3388 164.214 76.0834 161.558 76.0834H153.23V100.762H154.646V89.4732H161.814L169.817 100.762ZM179.2 100.761H180.62V76.0825H179.2V100.761ZM212.885 76.0844H231.549V77.4238H222.927V100.763H221.468V77.4238H212.885V76.0844ZM255.122 76.0844H236.458V77.4238H245.041V100.763H246.5V77.4238H255.122V76.0844Z" fill="#575F57"/>
</svg>