<svg width="233" height="113" viewBox="0 0 233 113" fill="none" xmlns="http://www.w3.org/2000/svg" wsf-3x2="0.8266666666666667" hsf-3x2="0.6013499999999999" wsf-4x2="0.8059999999999999" hsf-4x2="0.7818">
  <path fill-rule="evenodd" clip-rule="evenodd" d="M221.004 40.6074V35.8929C216.677 35.4895 213.241 35.1629 209.96 34.8561V27.8222C207.852 27.5512 206.804 27.422 204.699 27.1562V34.3614C201.686 34.0735 203.023 34.2332 199.092 33.8634V38.7932C203.023 39.122 201.686 38.9928 204.699 39.2481V65.6535C204.699 75.4627 215.861 76.7821 216.968 76.8903V72.2273C214.915 72.0172 209.96 70.9594 209.96 65.5548V39.6872C213.241 39.9614 216.677 40.2439 221.004 40.6074Z" fill="#123538"/>
  <path fill-rule="evenodd" clip-rule="evenodd" d="M86.748 76.9151V2.00049C88.8772 2.28096 89.9371 2.41752 92.0684 2.69589V76.9151C89.9371 76.9067 88.8772 76.9151 86.748 76.9151Z" fill="#123538"/>
  <path fill-rule="evenodd" clip-rule="evenodd" d="M148.316 41.3435C148.316 35.2697 145.516 32.339 139.718 31.8295C131.929 31.1519 128.03 30.8137 120.242 30.1393C114.448 29.6309 111.18 31.9093 111.18 38.7331V61.9745C111.18 68.6922 114.638 70.9717 120.242 71.041C128.089 71.041 131.875 71.06 139.776 71.06C145.101 71.1272 148.316 69.1061 148.316 63.1384V41.3435ZM140.728 76.9415C132.227 76.9236 127.892 76.9541 119.391 76.9415C110.703 76.9194 105.758 72.6882 105.758 62.568V37.5997C105.758 27.594 110.429 23.2021 119.394 24.0771C127.896 24.9122 132.148 25.3282 140.65 26.1612C149.436 27.0184 153.642 32.1688 153.642 41.0273V63.8706C153.642 72.8426 149.327 76.9604 140.728 76.9415Z" fill="#123538"/>
  <path fill-rule="evenodd" clip-rule="evenodd" d="M209.47 10.1058C206.164 9.56478 203.554 9.13304 199.786 9.83579C194.73 10.7812 184.178 13.15 177.422 15.3728C176.214 15.7478 175.619 15.94 174.407 16.3245C168.121 18.2773 163.576 19.7931 163.576 28.5119C163.576 47.9906 163.579 57.4363 163.579 76.9171H168.829V36.2622C176.839 36.9282 180.864 37.3074 189.968 38.068V33.0447C180.864 32.1854 176.839 31.7211 168.829 30.9689V29.0224C168.829 23.8636 170.604 23.2428 176.515 21.3646C177.754 20.9549 178.384 20.7553 179.627 20.3498C186.223 18.1302 196.557 15.7215 201.533 14.7519C204.409 14.1826 206.286 14.4757 209.387 14.9515C210.269 15.0807 210.707 15.1448 211.589 15.2719V10.4409C210.744 10.3053 210.315 10.2381 209.47 10.1058Z" fill="#123538"/>
  <path fill-rule="evenodd" clip-rule="evenodd" d="M62.321 54.2202C52.3918 55.235 43.0076 56.0564 33.0082 57.131C28.8315 57.6321 25.6602 60.5776 25.6602 65.6639C25.68 67.8174 25.6884 65.3782 25.7093 67.5285C25.7093 71.412 28.6442 74.3439 33.2949 74.3439C40.6263 74.3439 47.9482 74.326 55.2628 74.326C60.8646 74.326 62.4581 69.6126 62.3828 65.1608C62.3012 60.4484 62.3577 58.983 62.321 54.2202Z" fill="#123538"/>
  <path fill-rule="evenodd" clip-rule="evenodd" d="M19.8413 69.32V64.4353C19.8413 57.4529 24.4921 52.833 31.9343 51.709C42.1806 50.2909 62.5686 47.9788 62.5686 47.9788V42.0479C62.7475 37.0005 59.8064 33.6358 54.1941 34.8806C44.9072 36.4374 36.1854 37.6087 26.5637 39.2737C26.5449 37.0467 26.5773 35.9763 26.5637 33.5896C35.8642 31.786 41.9033 30.8238 51.1013 29.0579C65.2826 26.2868 68.049 31.2429 68.049 40.9218C68.049 48.7478 67.9737 52.2038 68.0176 60.0665V64.1065C68.0176 70.508 71.3501 73.3128 72.6914 73.7456C73.2355 72.547 73.337 71.0102 73.337 69.1109V11.8294C73.337 2.18403 66.3896 4.8522 60.182 6.33755C53.9754 7.8208 22.4884 15.985 12.4378 18.5061C2.38713 21.0293 2 24.2426 2 30.2492V66.7148C2 75.9137 4.60421 76.9768 12.1448 76.9768H23.3945C21.2454 75.1038 19.8057 72.5186 19.8413 69.32Z" fill="#123538"/>
  <path fill-rule="evenodd" clip-rule="evenodd" d="M65.2314 96.0122H67.8409V101.882H74.6972V96.0122H77.314V110.747H74.6972V104.252H67.8409V110.747H65.2314V96.0122Z" fill="#123538"/>
  <path fill-rule="evenodd" clip-rule="evenodd" d="M94.4544 108.747C97.5044 108.747 99.5143 106.416 99.5143 103.273C99.5143 100.343 97.5044 98.0166 94.4544 98.0166C91.4296 98.0166 89.4155 100.343 89.4155 103.273C89.4155 106.416 91.4296 108.747 94.4544 108.747ZM94.4325 95.6383C99.011 95.5564 102.251 98.6363 102.251 103.359C102.251 107.965 99.011 111.039 94.4325 111.119C89.9156 111.119 86.6826 108.041 86.6826 103.445C86.6826 98.7225 89.9156 95.6383 94.4325 95.6383Z" fill="#123538"/>
  <path fill-rule="evenodd" clip-rule="evenodd" d="M114.621 98.3839H110.127V96.012H121.732V98.3839H117.244V110.748H114.621V98.3839Z" fill="#123538"/>
  <path fill-rule="evenodd" clip-rule="evenodd" d="M130.398 96.0122H140.12V98.3841H133.007V102.001H139.75V104.379H133.007V108.372H140.496V110.747H130.398V96.0122Z" fill="#123538"/>
  <path fill-rule="evenodd" clip-rule="evenodd" d="M149.949 96.0122H152.564V108.372H158.801V110.747H149.949V96.0122Z" fill="#123538"/>
  <path fill-rule="evenodd" clip-rule="evenodd" d="M174.782 99.1737C174.222 98.3838 173.227 98.0161 172.211 98.0161C171.006 98.0161 169.81 98.5518 169.81 99.9164C169.81 102.863 176.765 101.176 176.765 106.417C176.765 109.575 174.282 111.118 171.4 111.118C169.576 111.118 167.797 110.559 166.591 109.129L168.562 107.208C169.208 108.189 170.302 108.747 171.465 108.747C172.671 108.747 174.032 108.081 174.032 106.73C174.032 103.503 167.071 105.349 167.071 100.091C167.071 97.0507 169.766 95.6389 172.48 95.6389C174.016 95.6389 175.548 96.0717 176.693 97.1547L174.782 99.1737Z" fill="#123538"/>
  <path fill-rule="evenodd" clip-rule="evenodd" d="M227.165 38.6584H227.877C228.494 38.6584 229.089 38.6269 229.089 37.8926C229.089 37.2613 228.545 37.1888 228.074 37.1888H227.165V38.6584ZM226.475 36.6215H228.19C229.267 36.6215 229.78 37.0522 229.78 37.9231C229.78 38.7529 229.257 39.0996 228.578 39.1731L229.885 41.1889H229.142L227.908 39.2256H227.165V41.1889H226.475V36.6215ZM227.96 42.2489C229.738 42.2489 231.159 40.8003 231.159 38.9105C231.159 37.0207 229.738 35.5721 227.96 35.5721C226.172 35.5721 224.76 37.0207 224.76 38.9105C224.76 40.8003 226.172 42.2489 227.96 42.2489ZM227.96 35.0049C230.072 35.0049 231.851 36.6846 231.851 38.9105C231.851 41.1354 230.072 42.8161 227.96 42.8161C225.836 42.8161 224.07 41.1354 224.07 38.9105C224.07 36.6846 225.836 35.0049 227.96 35.0049Z" fill="#123538"/>
</svg>