<svg width="311" height="67" viewBox="0 0 311 67" fill="none" xmlns="http://www.w3.org/2000/svg" wsf-3x2="1" hsf-3x2="0.319" wsf-4x2="0.88" hsf-4x2="0.37424999999999997">
  <path d="M311 13.8979H294.133C297.495 15.6571 297.918 19.4277 297.918 25.181V46.1897L276.297 20.4298C274.125 17.7334 272.62 15.7652 271.25 13.8979H256.375C259.401 15.6571 260.863 19.024 260.863 26.075V54.4375C260.863 60.2124 260.497 63.9686 257.15 65.7205H274.025C270.67 63.9686 270.24 60.2124 270.24 54.4375V32.9962L292.541 59.5996C295.703 63.3702 299.717 64.9491 307.266 66.1315V25.181C307.266 19.4277 307.753 15.6571 311 13.8979ZM99.0849 0H80.7618C82.7189 0.987715 83.8659 3.35967 83.8659 5.96234C83.8659 8.31988 83.2422 11.6147 81.8156 15.2699L72.6828 40.7631L56.1878 0H41.4275C45.5495 3.1578 47.4922 9.6104 44.4742 16.7695L33.6281 41.9454L17.2549 0H0C2.75992 1.8745 4.80299 6.26514 7.31201 12.3068L24.1511 54.8578C26.4236 60.6039 28.9828 63.5815 34.4166 66.1337L51.9511 26.3871L64.0087 54.8578C66.4533 60.4885 68.9121 63.5815 74.3244 66.1337L99.0849 0ZM138.198 54.7583C133.925 57.9017 129.509 59.3076 123.308 59.3076C119.975 59.3076 116.993 59.0264 114.849 58.5001V42.2353H119.337C124.835 42.2353 126.757 42.6318 128.197 44.2828V34.8238H114.849V21.4572C114.849 21.4572 116.921 21.1544 121.122 21.1544C126.068 21.1544 129.509 21.9763 131.488 24.1031V14.2909H99.3795C101.903 15.6967 102.319 17.7298 102.319 26.3814V54.0879C102.319 62.6745 101.903 64.7869 99.3795 66.1351H134.578L138.198 54.7583ZM179.767 48.7701C179.767 32.9161 155.881 33.9976 155.881 24.2863C155.881 21.4096 158.412 18.9007 162.856 18.9007C167.552 18.9007 171.645 20.6166 176.039 24.8847V13.6016C171.545 12.3904 167.874 11.6983 163.351 11.6983C153.451 11.6983 143.422 17.639 143.422 27.4296C143.422 45.3311 167.358 42.7284 167.358 52.7425C167.358 56.3257 164.254 58.8779 158.799 58.8779C152.684 58.8779 146.763 56.4122 140.669 51.0194L143.91 63.4776C148.82 65.2151 152.964 66.1308 157.487 66.1308C170.161 66.1308 179.767 59.1807 179.767 48.7701ZM225.601 14.2923H183.463L180.632 24.1046C183.8 21.9777 186.632 21.1558 191.886 21.1558H196.854V54.0893C196.854 62.6759 196.482 64.7883 193.815 66.1293H212.303C209.693 64.7883 209.335 62.6759 209.335 54.0893V21.1558H213.736C218.41 21.1558 221.543 21.8408 223.135 24.1046L225.601 14.2923ZM249.752 66.1322C247.2 64.784 246.806 62.6788 246.806 54.085V26.3857C246.806 17.7342 247.2 15.6939 249.752 14.2952H231.315C233.874 15.6939 234.318 17.7342 234.318 26.3857V54.085C234.318 62.6788 233.874 64.784 231.315 66.1322H249.752Z" fill="#51555A"/>
</svg>