<svg width="292" height="45" viewBox="0 0 292 45" fill="none" xmlns="http://www.w3.org/2000/svg" wsf-3x2="1" hsf-3x2="0.23115" wsf-4x2="1" hsf-4x2="0.32655">
  <g clip-path="url(#clip0_7_71)">
    <path fill-rule="evenodd" clip-rule="evenodd" d="M5.05205 14.0468C5.05205 19.1442 8.50879 23.6382 14.1309 23.6382C18.8034 23.6382 21.9557 20.2395 21.9557 20.2395L24.5394 23.752C24.5394 23.752 20.8166 28.0947 13.9409 28.0947C5.69773 28.0947 0 22.0143 0 14.122C0 6.34341 5.92556 0.376709 13.8653 0.376709C20.437 0.376709 23.8176 4.03951 23.8176 4.03951L21.4622 7.66523C21.4622 7.66523 18.3856 4.8327 14.0931 4.8327C8.39488 4.8327 5.05205 9.0622 5.05205 14.0468ZM37.3421 14.0468C37.3421 19.5596 41.2928 23.6382 46.2309 23.6382C51.1691 23.6382 55.1198 19.5596 55.1198 14.0468C55.1198 8.76006 51.1691 4.8327 46.2309 4.8327C41.2928 4.8327 37.3421 8.76006 37.3421 14.0468ZM32.29 14.0468C32.29 6.38149 38.2917 0.376709 46.2309 0.376709C54.1706 0.376709 60.1723 6.38149 60.1723 14.0468C60.1723 21.9391 54.1706 28.0947 46.2309 28.0947C38.2917 28.0947 32.29 21.9391 32.29 14.0468ZM86.8534 17.9738C86.8534 21.5991 84.4607 23.6384 80.8517 23.6384C77.2428 23.6384 74.8879 21.5991 74.8879 18.0119V0.829834H69.9875V18.0119C69.9875 24.0162 74.3561 28.0949 80.8895 28.0949C87.3852 28.0949 91.7537 24.0162 91.7537 18.0119V0.829834H86.8534V17.9738ZM108.878 13.4046H113.283C115.905 13.4046 117.538 11.8563 117.538 9.1756C117.538 6.60813 116.437 5.02225 112.6 5.02225H108.878V13.4046ZM117.956 16.2371V16.3128C117.956 16.3128 118.336 16.6901 118.868 17.6346L124.414 27.6414H118.944L113.587 17.6346H108.878V27.6414H103.977V0.829834H112.676C115.601 0.829834 116.931 1.05632 118.108 1.58544C120.805 2.79401 122.515 5.36198 122.515 8.91154C122.515 12.1209 120.805 15.1042 117.956 16.2371ZM131.656 5.02225H140.507V27.6414H145.407V5.02225H154.258V0.829834H131.656V5.02225ZM177.5 16.4255V27.6414H172.6V16.4255L163.635 0.829834H169.182L173.398 8.72214C173.962 9.79593 174.464 10.9959 174.758 11.7005L174.758 11.7007L174.758 11.701L174.758 11.7017L174.758 11.7022L174.759 11.704C174.919 12.0876 175.018 12.3234 175.031 12.3103H175.107C175.107 12.3103 175.867 10.3837 176.741 8.72214L180.919 0.829834H186.465L177.5 16.4255ZM237.288 13.4046H232.881V5.02225H236.604C240.441 5.02225 241.542 6.60813 241.542 9.1756C241.542 11.8563 239.909 13.4046 237.288 13.4046ZM241.96 16.3128V16.2371C244.81 15.1042 246.519 12.1209 246.519 8.91154C246.519 5.36198 244.81 2.79401 242.112 1.58544C240.935 1.05632 239.605 0.829834 236.68 0.829834H227.981V27.6414H232.881V17.6346H237.592L242.948 27.6414H248.418L242.872 17.6346C242.34 16.6901 241.96 16.3128 241.96 16.3128ZM263.777 5.02225V23.4495H267.803C273.274 23.4495 276.769 20.2397 276.769 14.1978C276.769 8.23159 273.198 5.02225 267.803 5.02225H263.777ZM268.069 0.829834C276.389 0.829834 281.82 5.73879 281.82 14.1978C281.82 22.6573 276.389 27.6414 268.069 27.6414H258.877V0.829834H268.069ZM202.088 17.8908C201.927 17.9748 201.767 18.0614 201.609 18.1489L204.806 10.4242H204.882L207.139 15.9652C205.395 16.388 203.691 17.0288 202.088 17.8908ZM216.886 27.6414L204.9 0.829834H204.751L192.765 27.6414H197.679L197.682 27.6335L197.694 27.6414C197.893 27.2849 198.092 26.9956 198.343 26.6752C198.343 26.6752 199.357 25.2579 199.823 24.7263C200.288 24.1937 200.961 23.5543 201.557 22.9876C201.753 22.8213 201.958 22.6678 202.165 22.5141C202.289 22.4215 202.413 22.3288 202.535 22.233C202.855 21.9699 203.208 21.7543 203.563 21.5392C204.965 20.6565 206.508 19.9548 208.131 19.4737L208.525 19.3693L211.893 27.6414H216.886ZM289.025 3.21863C289.025 3.72006 288.716 4.02616 288.243 4.02616H287.379V2.44226H288.243C288.716 2.44226 289.025 2.72759 289.025 3.21863ZM288.294 2.03281H286.926V6.12237H287.379V4.41534H288.263L289.138 6.12237H289.642L288.829 4.55825C288.737 4.38468 288.695 4.33374 288.695 4.33374V4.31248C289.117 4.21012 289.487 3.82242 289.487 3.21863C289.487 2.50308 288.993 2.03281 288.294 2.03281ZM291.318 4.07808C291.318 5.92803 289.93 7.34973 288.119 7.34973C286.34 7.34973 284.962 5.92803 284.962 4.07808C284.962 2.23753 286.34 0.806434 288.119 0.806434C289.93 0.806434 291.318 2.23753 291.318 4.07808ZM291.781 4.07808C291.781 2.01253 290.156 0.376709 288.119 0.376709C286.114 0.376709 284.5 2.01253 284.5 4.07808C284.5 6.15352 286.114 7.77847 288.119 7.77847C290.156 7.77847 291.781 6.15352 291.781 4.07808Z" fill="#DD9C28"/>
    <path fill-rule="evenodd" clip-rule="evenodd" d="M258.573 42.4736C258.822 42.1844 259.015 41.8491 259.149 41.4668C259.283 41.0846 259.35 40.685 259.35 40.2667C259.35 39.8404 259.283 39.4379 259.149 39.0601C259.015 38.6823 258.822 38.3514 258.573 38.0666C258.321 37.7823 258.017 37.5583 257.66 37.3936C257.303 37.2294 256.904 37.1463 256.466 37.1463C256.019 37.1463 255.619 37.2294 255.266 37.3936C254.913 37.5583 254.611 37.7823 254.361 38.0666C254.11 38.3514 253.918 38.6823 253.784 39.0601C253.65 39.4379 253.582 39.8404 253.582 40.2667C253.582 40.685 253.65 41.0846 253.784 41.4668C253.918 41.8491 254.11 42.1844 254.361 42.4736C254.611 42.7629 254.913 42.9914 255.266 43.161C255.619 43.3291 256.019 43.4137 256.466 43.4137C256.904 43.4137 257.303 43.3291 257.66 43.161C258.017 42.9914 258.321 42.7629 258.573 42.4736ZM258.29 35.9936C258.855 36.2384 259.346 36.5712 259.767 36.9935C260.187 37.4163 260.518 37.9118 260.759 38.4805C260.999 39.0492 261.121 39.6579 261.121 40.3067C261.121 40.956 260.999 41.5652 260.759 42.1334C260.518 42.7026 260.187 43.2006 259.767 43.6263C259.346 44.0536 258.855 44.3889 258.29 44.6326C257.727 44.8784 257.12 44.9996 256.466 44.9996C255.814 44.9996 255.205 44.8784 254.642 44.6326C254.078 44.3889 253.588 44.0536 253.167 43.6263C252.747 43.2006 252.416 42.7026 252.174 42.1334C251.933 41.5652 251.812 40.956 251.812 40.3067C251.812 39.6579 251.933 39.0492 252.174 38.4805C252.416 37.9118 252.745 37.4163 253.162 36.9935C253.576 36.5712 254.067 36.2384 254.636 35.9936C255.204 35.7489 255.814 35.6262 256.466 35.6262C257.12 35.6262 257.727 35.7489 258.29 35.9936ZM228.33 39.4936C228.092 39.7424 227.759 39.8675 227.331 39.8675H225.557V37.2931H227.331C227.733 37.2931 228.059 37.4138 228.31 37.6536C228.56 37.8924 228.685 38.2045 228.685 38.5867C228.685 38.9418 228.567 39.2444 228.33 39.4936ZM230.033 40.0069C230.279 39.5762 230.402 39.0797 230.402 38.5195C230.402 38.2361 230.346 37.9379 230.234 37.6264C230.122 37.3153 229.946 37.028 229.704 36.7664C229.463 36.5049 229.145 36.2883 228.753 36.1206C228.36 35.952 227.88 35.8669 227.317 35.8669H223.934V44.7601H225.557V41.2531H227.251L229.061 44.7601H230.966L228.9 41.041C229.41 40.7818 229.787 40.4377 230.033 40.0069ZM206.461 35.8674L203.811 40.0668L201.12 35.8674H199.55L199.121 44.7596H200.704L200.999 38.694L203.368 42.2268H204.158L206.514 38.6001L206.809 44.7596H208.458L208.029 35.8674H206.461ZM176.797 43.3211C177.862 43.3211 178.508 42.9042 178.508 42.111V42.0853C178.508 41.3416 177.912 40.9005 176.682 40.9005H174.21V43.3211H176.797ZM176.454 37.2456H174.21V39.59H176.34C177.342 39.59 178.014 39.1989 178.014 38.3923V38.3671C178.014 37.6743 177.456 37.2456 176.454 37.2456ZM179.573 38.1406C179.573 39.1989 178.964 39.7666 178.305 40.1068C179.345 40.4594 180.067 41.0518 180.067 42.2495V42.2747C180.067 43.8492 178.762 44.6943 176.784 44.6943H172.676V35.8718H176.657C177.672 35.8718 178.47 36.1492 178.977 36.6531C179.37 37.0443 179.573 37.5225 179.573 38.1154V38.1406ZM184.153 35.8718L186.638 39.7789L189.148 35.8718H190.935L187.411 41.1779V44.6943H185.839V41.2155L182.314 35.8718H184.153ZM216.071 37.6669L214.876 41.1201H217.252L216.071 37.6669ZM211.859 44.7596L215.252 35.8674H216.996L220.39 44.7596H218.512L217.734 42.5076H214.407L213.63 44.7596H211.859ZM238.181 39.8675C238.61 39.8675 238.944 39.7424 239.18 39.4936C239.418 39.2444 239.537 38.9418 239.537 38.5867C239.537 38.2045 239.41 37.8924 239.161 37.6536C238.91 37.4138 238.583 37.2931 238.181 37.2931H236.408V39.8675H238.181ZM241.252 38.5195C241.252 39.0797 241.13 39.5762 240.884 40.0069C240.638 40.4377 240.26 40.7818 239.75 41.041L241.816 44.7601H239.912L238.101 41.2531H236.408V44.7601H234.786V35.8669H238.168C238.731 35.8669 239.209 35.952 239.603 36.1206C239.996 36.2883 240.315 36.5049 240.555 36.7664C240.797 37.028 240.973 37.3153 241.085 37.6264C241.197 37.9379 241.252 38.2361 241.252 38.5195ZM246.048 44.7601H247.738V35.8674H246.048V44.7601ZM273.946 37.347H276.977V44.7601H278.667V37.347H281.699V35.8674H273.946V37.347ZM266.36 37.347H263.33V35.8674H271.081V37.347H268.05V44.7601H266.36V37.347Z" fill="#53575A"/>
  </g>
  <defs>
    <clipPath id="clip0_7_71">
      <rect width="292" height="45" fill="white"/>
    </clipPath>
  </defs>
</svg>