<svg width="267" height="40" viewBox="0 0 267 40" fill="none" xmlns="http://www.w3.org/2000/svg" wsf-3x2="1" hsf-3x2="0.22469999999999998" wsf-4x2="0.975" hsf-4x2="0.29215">
  <g clip-path="url(#clip0_7_266)">
    <path fill-rule="evenodd" clip-rule="evenodd" d="M25.9648 21.2369L26.3564 20.5258C26.921 19.5017 27.4692 18.4691 28.0166 17.438L28.0167 17.4378C30.7262 12.3339 33.4159 7.26745 37.9842 3.45909C40.3249 1.51687 45.9987 0.321317 44.8862 6.20132C43.0884 12.8102 34.6022 19.9613 26.9616 21.0991L25.9648 21.2369ZM40.4228 30.2235C43.1106 30.3435 50.8937 27.4502 50.8047 23.4502C50.4042 21.3391 47.881 21.6591 46.417 22.0813C42.6923 23.1969 39.4349 27.3524 37.7973 30.0058C36.6092 31.8991 34.9671 33.2902 32.8356 34.0724C29.5159 35.2724 26.0538 35.4013 22.8809 34.8635C20.9191 34.532 20.2147 34.3589 16.9467 33.5561L16.6242 33.4769C19.6528 31.029 21.8109 27.7421 23.9329 24.51C24.5079 23.6342 25.0803 22.7624 25.6666 21.9124C30.3747 21.3035 39.6218 18.8546 44.7972 9.39687C46.5104 6.26798 47.1023 1.83243 42.9104 1.09021C40.4762 0.663539 38.3313 1.71243 35.9862 3.35243C29.3067 7.99243 25.8001 14.8369 22.3692 21.6413C20.8962 21.8369 19.1029 21.7302 17.9948 21.4991C17.9401 21.4878 17.8755 21.4755 17.8012 21.4613C16.9399 21.2972 14.7872 20.887 11.8538 18.9924C8.76106 16.9924 5.96201 12.0946 7.48836 6.09909L6.65621 6.42798C5.68166 9.17909 6.27796 12.9702 7.90666 15.8458C9.41966 18.5213 11.3065 19.988 14.5906 21.2635L14.6826 21.2999C15.6515 21.6832 17.1056 22.2585 21.1454 22.3791L22.1378 22.3347L21.6305 23.2858C21.5077 23.5185 21.3866 23.749 21.2665 23.9777L21.2655 23.9796C20.2712 25.8724 19.3435 27.6384 18.0972 29.4858C18.0387 29.5716 17.9677 29.6852 17.8917 29.8068C17.771 29.9999 17.6378 30.213 17.5231 30.3658C16.7371 31.4021 16.1001 32.1147 15.2208 33.0983L15.2002 33.1213C10.8882 31.9213 5.61046 31.2191 2.45986 32.4058C2.45986 32.4058 0.301608 33.0324 0.217058 34.8369C0.110258 37.1791 3.90166 37.7213 3.90166 37.7213C7.80876 38.3746 11.4222 36.988 15.2714 34.4769C16.2541 34.8135 17.292 35.2643 18.3722 35.7335L18.3723 35.7335L18.3723 35.7335C21.357 37.0299 24.6638 38.4662 28.0162 38.0191C29.0219 37.8947 30.2056 37.6369 31.1535 37.1435C31.2364 37.101 31.3193 37.0587 31.402 37.0166L31.402 37.0166L31.4021 37.0166L31.4021 37.0165L31.4022 37.0165C32.1311 36.645 32.8459 36.2806 33.4853 35.7658C34.8069 34.6813 36.5424 32.8991 37.4235 31.4324C36.8762 33.0102 36.9607 34.1747 37.2455 35.2235C37.5125 36.228 38.4114 37.2102 39.7242 37.5124C44.5079 38.5969 48.2148 34.9391 50.9426 31.2191L50.4353 31.2635C48.7977 33.4769 44.7616 38.0146 40.4896 36.9435C37.8285 35.6235 39.3993 32.2413 40.4228 30.2235ZM40.7521 29.5791C41.9803 27.4458 44.2988 23.8369 47.4316 22.388C48.3216 21.9835 49.3718 22.2547 49.6744 23.068C49.928 23.7435 50.0393 24.508 48.6687 25.948C47.8321 26.8235 44.2676 29.3791 40.7521 29.5791ZM12.8951 34.7969C11.5023 35.628 7.52396 37.5835 4.39561 37.1347L4.38311 37.133C4.15484 37.1043 0.9004 36.6946 0.706558 35.2147C0.461808 33.388 2.51771 32.8191 3.83046 32.548C6.52271 32.0058 11.9473 33.0102 14.1901 34.0102L14.0165 34.1124L12.8951 34.7969ZM241.779 37.2525V14.328L265.519 38.0347L265.622 2.87912L260.615 2.94134V26.0213L236.879 2.30579L236.982 37.2925L241.779 37.2525ZM160.805 37.2489H155.398V2.87555H160.805V37.2489ZM200.005 37.2489H205.421V2.87555H200.005V37.2489ZM103.214 2.54358H122.602V7.15247H108.652V17.468H121.775V21.9925H108.652V32.6636H123.506V37.2547H103.214V2.54358ZM231.512 2.54358H212.137V37.2547H232.42V32.6636H217.57V21.9925H230.684V17.468H217.57V7.15247H231.512V2.54358ZM67.3774 16.5822L65.139 37.2133H60.115L64.9165 2.11999L79.3434 27.6133L93.8326 2.09332L98.5541 37.2133L93.3787 37.2533L91.176 16.6844L79.2945 37.2889L67.3774 16.5822ZM141.53 22.348C142.794 21.8947 144.031 21.068 145.424 19.3214C146.812 17.5702 147.738 15.2902 147.738 12.8458C147.738 9.73025 146.42 7.15247 144.204 5.25025C142.189 3.54802 138.811 2.78802 134.276 2.78802H128.22V37.1658H133.373V23.5258H136.141L145.619 37.1658H151.729L141.53 22.348ZM133.458 19.5036L133.467 7.06358H135.309C140.061 7.06358 142.433 9.23691 142.433 13.3525C142.433 17.3302 139.981 19.5036 135.095 19.5036H133.458ZM182.466 3.90447C184.607 4.57559 186.56 5.70892 188.309 7.30892C191.851 10.5489 193.983 14.7934 193.983 20.0645C193.983 25.3489 191.949 29.7489 188.26 33.0111C186.409 34.6467 184.295 35.66 182.266 36.2911C180.366 36.9356 177.683 37.2511 174.198 37.2511H167.083V2.87781H174.287C177.741 2.87781 180.459 3.22447 182.466 3.90447ZM180.419 31.6334C181.968 31.1178 183.37 30.2911 184.62 29.1667C187.179 26.8378 188.665 23.8067 188.665 20.0645C188.665 16.2956 187.197 13.2423 184.66 10.9C182.382 8.81114 179.027 7.7667 174.594 7.7667H172.249V32.3711H174.594C176.922 32.3711 178.866 32.1267 180.419 31.6334Z" fill="#231F20"/>
  </g>
  <defs>
    <clipPath id="clip0_7_266">
      <rect width="267" height="40" fill="white"/>
    </clipPath>
  </defs>
</svg>