<svg width="252" height="73" viewBox="0 0 252 73" fill="none" xmlns="http://www.w3.org/2000/svg">
<path d="M232.738 32.8654L221.419 49.0002L210.1 32.8654H202.355L218.043 55.0073V71.7869H224.845V55.0073L240.532 32.8654H232.738ZM19.3121 66.1279H6.80143V54.5605H19.3121C22.8866 54.5605 25.8156 57.1415 25.8156 60.3193C25.8156 63.4966 22.8866 66.0777 19.3121 66.1279ZM6.80143 38.5746H18.2695C21.4468 38.5746 24.0284 40.908 24.0284 43.7373C24.0284 46.5675 21.4468 48.9009 18.2695 48.9009H6.80143V38.5746ZM27.7022 51.5817L27.1561 51.1841L27.6029 50.6876C29.4398 48.8016 30.4823 46.3193 30.532 43.6881C30.532 37.7306 25.0213 32.8654 18.2695 32.8654H0V71.8371H19.3121C26.461 71.8371 32.3192 66.674 32.3192 60.3685C32.2199 56.8442 30.532 53.5675 27.7022 51.5817ZM145.908 58.8299L134.639 32.8653H127.142L144.369 71.7873H147.496L164.674 32.8653H157.177L145.908 58.8299ZM59.4258 65.9291C51.9293 65.9291 45.8229 59.8723 45.8229 52.3267C45.8229 44.7801 51.8797 38.7234 59.4258 38.7234C66.9719 38.7234 73.0286 44.7801 73.0286 52.3267C73.0286 59.8227 66.9222 65.9291 59.4258 65.9291ZM59.4258 32.0709C48.2555 32.0709 39.1704 41.1565 39.1704 52.3267C39.1704 63.4969 48.2555 72.5816 59.4258 72.5816C70.596 72.5816 79.6811 63.4969 79.6811 52.3267C79.6811 41.1565 70.6456 32.0709 59.4258 32.0709ZM113.291 57.9858L91.1989 32.8652H87.823V71.7872H94.5747V46.7163L116.717 71.7872H120.093V32.8652H113.291V57.9858ZM184.234 53.4683C179.915 53.4683 176.39 49.9429 176.39 45.6243C176.39 41.3051 179.915 37.7798 184.234 37.7798C188.553 37.7798 192.079 41.3051 192.079 45.6243C192.028 49.9931 188.553 53.4683 184.234 53.4683ZM183.986 32.0711C176.192 32.0711 169.936 38.6243 170.433 46.5179C170.83 53.2697 176.341 58.7803 183.142 59.2271C191.036 59.7236 197.589 53.4683 197.589 45.6739C197.589 38.1775 191.483 32.0711 183.986 32.0711ZM36.8371 6.70214V19.8582H33.213V0.397164H37.2839L43.291 11.1702L49.2981 0.397164H53.3194V19.8582H49.6953V6.70214L44.5818 16.1348H41.9506L36.8371 6.70214ZM192.177 0.397064V3.72331H197.937V19.8581H201.56V3.72331H207.319V0.397064H192.177ZM171.128 0.397064V3.72331H176.887V19.8581H180.511V3.72331H186.27V0.397064H171.128ZM134.936 19.8582H138.561V0.397164H134.936V19.8582ZM90.1562 3.47518H96.213C97.9009 3.47518 99.291 4.66667 99.291 6.20568C99.291 7.69505 97.9009 8.93618 96.213 8.93618H90.1562V3.47518ZM90.1562 11.9646H93.135L98.596 19.8582H102.766L97.2556 11.8653C100.383 11.4185 102.766 9.03547 102.766 6.15604C102.766 2.97873 99.8371 0.347518 96.213 0.347518H86.5321V19.8085H90.1562V11.9646ZM69.3052 0.397064L60.2697 19.8581H64.142L65.8796 16.1347H74.4683L76.2059 19.8581H80.0782L71.0924 0.397064H69.3052ZM70.1988 6.90062L73.0286 13.007H67.369L70.1988 6.90062ZM123.17 6.20568C123.17 7.69505 121.78 8.93618 120.092 8.93618H114.036V3.47518H120.142C121.83 3.47518 123.22 4.66667 123.17 6.20568ZM120.142 0.397164H110.461V19.8582H114.085V11.9646H117.064L122.525 19.8582H126.695L121.185 11.8653C124.312 11.4185 126.695 9.03547 126.695 6.15604C126.646 2.97873 123.717 0.397164 120.142 0.397164ZM155.986 16.6312C152.412 16.6312 149.482 13.7021 149.482 10.1277C149.482 6.5532 152.412 3.62412 155.986 3.62412C159.561 3.62412 162.49 6.5532 162.49 10.1277C162.49 13.7021 159.61 16.6312 155.986 16.6312ZM155.986 0C150.376 0 145.859 4.51774 145.859 10.1277C145.859 15.7376 150.376 20.2553 155.986 20.2553C161.596 20.2553 166.113 15.7376 166.113 10.1277C166.113 4.51774 161.596 0 155.986 0ZM244.653 33.4113H243.114V32.8155H246.887V33.4113H245.348V37.7304H244.653V33.4113ZM248.079 37.6811H247.483V32.7662H248.426L249.618 36.5388C249.667 36.6882 249.717 36.787 249.717 36.9364C249.766 36.787 249.766 36.6381 249.816 36.5388L251.057 32.7662H252V37.6811H251.355V33.5109C251.305 33.6593 251.305 33.8088 251.255 33.9577L250.014 37.7307H249.369L248.178 33.9577C248.128 33.8088 248.079 33.6593 248.079 33.5109V37.6811Z" fill="#231C19"/>
<path fill-rule="evenodd" clip-rule="evenodd" d="M167.305 71.6382H201.561V66.1772H167.305V71.6382Z" fill="#FF8D6B"/>
</svg>
